<svg width="30" height="30" viewBox="0 0 30 30" fill="none" xmlns="http://www.w3.org/2000/svg">
<path d="M15 2.5C8.3375 8.1875 5 13.1 5 17.25C5 23.475 9.75 27.5 15 27.5C20.25 27.5 25 23.475 25 17.25C25 13.1 21.6625 8.1875 15 2.5ZM15 25C10.8125 25 7.5 21.7875 7.5 17.25C7.5 14.325 9.9375 10.45 15 5.825C20.0625 10.45 22.5 14.3125 22.5 17.25C22.5 21.7875 19.1875 25 15 25ZM9.7875 17.5C10.25 17.5 10.625 17.825 10.7125 18.275C11.225 21.05 13.5625 22 15.2625 21.8625C15.8 21.8375 16.25 22.2625 16.25 22.8C16.25 23.3 15.85 23.7125 15.35 23.7375C12.6875 23.9 9.575 22.375 8.8625 18.5875C8.84078 18.4535 8.84842 18.3163 8.88491 18.1856C8.92139 18.0548 8.98584 17.9335 9.07381 17.8301C9.16177 17.7267 9.27115 17.6436 9.39437 17.5866C9.5176 17.5296 9.65173 17.5001 9.7875 17.5Z" fill="black"/>
</svg>
