<svg width="30" height="30" viewBox="0 0 30 30" fill="none" xmlns="http://www.w3.org/2000/svg">
<path d="M9.27704 16.4587C9.55979 16.5275 9.84934 16.5644 10.1403 16.5689C10.8698 16.5687 11.5828 16.3513 12.1883 15.9444L15.1454 18.5801C14.9112 19.0249 14.7737 19.5143 14.742 20.0161C14.7104 20.5178 14.7852 21.0206 14.9617 21.4913C15.1471 22.0247 15.453 22.5082 15.8555 22.9042C16.2581 23.3002 16.7465 23.598 17.2829 23.7746C17.8193 23.9512 18.3891 24.0017 18.9482 23.9223C19.5072 23.8429 20.0405 23.6357 20.5065 23.3167C20.9724 22.9978 21.3586 22.5757 21.635 22.0833C21.9114 21.5909 22.0705 21.0414 22.1 20.4774C22.1296 19.9135 22.0287 19.3504 21.8053 18.8318C21.5818 18.3132 21.2419 17.8531 20.8117 17.4872L23.1444 12.8128C23.5997 12.9154 24.071 12.9253 24.5302 12.8416C24.9894 12.758 25.427 12.5826 25.8168 12.326C26.4789 11.922 26.9961 11.3187 27.2943 10.6028C27.5925 9.88676 27.6564 9.09476 27.4769 8.3402C27.2974 7.58565 26.8837 6.90727 26.295 6.40226C25.7063 5.89726 24.9729 5.59153 24.1999 5.5289C23.4268 5.46626 22.6537 5.64992 21.9914 6.05357C21.3291 6.45722 20.8116 7.06014 20.5129 7.77596C20.2143 8.49177 20.1499 9.28374 20.3289 10.0384C20.508 10.7931 20.9213 11.4717 21.5097 11.977L19.177 16.6515C18.9237 16.5958 18.665 16.5681 18.4056 16.5689C17.6761 16.5691 16.9632 16.7865 16.3577 17.1934L13.4005 14.5577C13.6348 14.1128 13.7722 13.6234 13.8039 13.1217C13.8356 12.6199 13.7607 12.1172 13.5842 11.6464C13.4002 11.1169 13.0974 10.6366 12.6991 10.2421C12.3008 9.84766 11.8175 9.54961 11.2862 9.37077C10.7549 9.19193 10.1898 9.13706 9.63401 9.21034C9.07825 9.28363 8.54664 9.48314 8.07988 9.79359C7.61312 10.104 7.22361 10.5172 6.94116 11.0014C6.65872 11.4856 6.49084 12.028 6.45038 12.5872C6.40992 13.1463 6.49796 13.7072 6.70775 14.2271C6.91754 14.7469 7.24352 15.2118 7.66071 15.5862L3.71173 22.9974V1.875H1.875V25.7526C1.875 26.2397 2.06851 26.7069 2.41297 27.0513C2.75742 27.3958 3.2246 27.5893 3.71173 27.5893H27.5893V25.7526H4.32704L9.27704 16.4587ZM23.9158 7.3852C24.2791 7.3852 24.6342 7.49293 24.9363 7.69475C25.2383 7.89657 25.4737 8.18343 25.6127 8.51905C25.7518 8.85467 25.7881 9.22398 25.7173 9.58027C25.6464 9.93656 25.4715 10.2638 25.2146 10.5207C24.9577 10.7776 24.6304 10.9525 24.2741 11.0234C23.9179 11.0943 23.5485 11.0579 23.2129 10.9189C22.8773 10.7798 22.5905 10.5444 22.3886 10.2424C22.1868 9.94032 22.0791 9.58521 22.0791 9.22194C22.0791 8.73481 22.2726 8.26763 22.6171 7.92317C22.9615 7.57872 23.4287 7.3852 23.9158 7.3852ZM20.2423 20.2423C20.2423 20.6056 20.1346 20.9607 19.9328 21.2628C19.731 21.5648 19.4441 21.8003 19.1085 21.9393C18.7729 22.0783 18.4036 22.1147 18.0473 22.0438C17.691 21.9729 17.3637 21.798 17.1068 21.5411C16.85 21.2842 16.675 20.957 16.6042 20.6007C16.5333 20.2444 16.5697 19.8751 16.7087 19.5395C16.8477 19.2038 17.0831 18.917 17.3852 18.7152C17.6872 18.5133 18.0423 18.4056 18.4056 18.4056C18.8927 18.4056 19.3599 18.5991 19.7044 18.9436C20.0488 19.288 20.2423 19.7552 20.2423 20.2423ZM10.1403 11.0587C10.5036 11.0587 10.8587 11.1664 11.1607 11.3682C11.4628 11.57 11.6982 11.8569 11.8372 12.1925C11.9762 12.5281 12.0126 12.8974 11.9417 13.2537C11.8709 13.61 11.6959 13.9373 11.4391 14.1942C11.1822 14.451 10.8549 14.626 10.4986 14.6969C10.1423 14.7677 9.77304 14.7313 9.43742 14.5923C9.1018 14.4533 8.81494 14.2179 8.61312 13.9158C8.41129 13.6138 8.30357 13.2587 8.30357 12.8954C8.30357 12.4083 8.49708 11.9411 8.84154 11.5966C9.18599 11.2522 9.65317 11.0587 10.1403 11.0587Z" fill="black"/>
</svg>
