<svg width="20" height="14" viewBox="0 0 20 14" fill="none" xmlns="http://www.w3.org/2000/svg">
<path d="M0.742188 4.51696C1.26302 4.27967 1.79688 4.26272 2.34375 4.46611C3.38542 4.75425 4.24479 5.25425 4.92188 5.96611C5.65104 5.05086 6.78385 4.39831 8.32031 4.00848V3.14408C8.32031 2.85594 8.51562 2.56781 8.90625 2.27967C9.32292 2.09323 9.80469 2.02543 10.3516 2.07628C11.8099 2.27967 12.7734 2.83899 13.2422 3.75425C15.1172 4.00848 16.7122 4.51696 18.0273 5.27967C19.3424 6.04238 20 6.94069 20 7.97459C20 9.19492 19.0885 10.2246 17.2656 11.0636C15.4427 11.9026 13.4375 12.322 11.25 12.322C9.79167 12.322 8.50911 12.1187 7.40234 11.7119C6.29557 11.3051 5.46875 10.7458 4.92187 10.0339C4.24479 10.7458 3.38542 11.2542 2.34375 11.5593C1.97917 11.6271 1.75781 11.661 1.67969 11.661C1.34115 11.661 1.02865 11.6102 0.742188 11.5085C0.247396 11.2881 0 10.9831 0 10.5932V5.38136C0 4.95764 0.247396 4.6695 0.742188 4.51696ZM11.25 3.65255C11.1198 3.44916 10.7031 3.27967 10 3.14408V3.65255L11.25 3.65255ZM18.3203 7.97459C18.3203 7.46611 18.0404 6.98306 17.4805 6.52543C16.9206 6.06781 16.1719 5.68645 15.2344 5.38136C14.5312 5.94069 14.1797 6.80509 14.1797 7.97459C14.1797 9.14408 14.5312 10.017 15.2344 10.5932C16.1719 10.2881 16.9206 9.90255 17.4805 9.43645C18.0404 8.97035 18.3203 8.48306 18.3203 7.97459ZM11.25 11.2288C11.875 11.2288 12.6823 11.161 13.6719 11.0254C12.8906 10.161 12.5 9.14408 12.5 7.97459C12.5 6.82204 12.8906 5.81357 13.6719 4.94916C13.0469 4.79662 12.2396 4.72035 11.25 4.72035C9.63542 4.72035 8.32682 5.01696 7.32422 5.61018C6.32161 6.2034 5.82031 6.99153 5.82031 7.97459C5.82031 8.95764 6.32161 9.74577 7.32422 10.339C8.32682 10.9322 9.63542 11.2288 11.25 11.2288ZM1.67969 10.7458C3.34635 10.0339 4.17969 9.14408 4.17969 8.07628C4.17969 7.51696 3.92578 6.97882 3.41797 6.46187C2.91016 5.94492 2.33073 5.6017 1.67969 5.43221V10.7458ZM15 7.44069C15 7.59323 15.0846 7.72035 15.2539 7.82204C15.4232 7.92374 15.612 7.97459 15.8203 7.97459C16.0547 7.97459 16.2565 7.92374 16.4258 7.82204C16.5951 7.72035 16.6797 7.59323 16.6797 7.44069C16.6797 7.28814 16.5951 7.16103 16.4258 7.05933C16.2565 6.95764 16.0547 6.90679 15.8203 6.90679C15.612 6.90679 15.4232 6.95764 15.2539 7.05933C15.0846 7.16103 15 7.28814 15 7.44069Z" fill="black"/>
</svg>
