<svg width="43" height="43" viewBox="0 0 43 43" fill="none" xmlns="http://www.w3.org/2000/svg">
<g filter="url(#filter0_d_802_342)">
<rect x="2" y="2" width="35" height="35" rx="5" fill="white"/>
</g>
<g clip-path="url(#clip0_802_342)">
<path d="M21.2011 28.4344L20.0738 29.5347C19.5965 30.0005 18.8246 30.0005 18.3523 29.5347L8.48044 19.905C8.0031 19.4392 8.0031 18.6859 8.48044 18.2249L18.3523 8.59037C18.8297 8.1245 19.6015 8.1245 20.0738 8.59037L21.2011 9.69061C21.6836 10.1614 21.6734 10.9296 21.1808 11.3905L15.0617 17.0801H29.6562C30.3316 17.0801 30.875 17.6104 30.875 18.2695V19.8555C30.875 20.5146 30.3316 21.0449 29.6562 21.0449H15.0617L21.1808 26.7345C21.6785 27.1954 21.6886 27.9636 21.2011 28.4344Z" fill="#292929" fill-opacity="0.8"/>
</g>
<defs>
<filter id="filter0_d_802_342" x="0" y="0" width="43" height="43" filterUnits="userSpaceOnUse" color-interpolation-filters="sRGB">
<feFlood flood-opacity="0" result="BackgroundImageFix"/>
<feColorMatrix in="SourceAlpha" type="matrix" values="0 0 0 0 0 0 0 0 0 0 0 0 0 0 0 0 0 0 127 0" result="hardAlpha"/>
<feOffset dx="2" dy="2"/>
<feGaussianBlur stdDeviation="2"/>
<feComposite in2="hardAlpha" operator="out"/>
<feColorMatrix type="matrix" values="0 0 0 0 0 0 0 0 0 0 0 0 0 0 0 0 0 0 0.25 0"/>
<feBlend mode="normal" in2="BackgroundImageFix" result="effect1_dropShadow_802_342"/>
<feBlend mode="normal" in="SourceGraphic" in2="effect1_dropShadow_802_342" result="shape"/>
</filter>
<clipPath id="clip0_802_342">
<rect width="22.75" height="25.375" fill="white" transform="translate(8.125 6.375)"/>
</clipPath>
</defs>
</svg>
