<svg width="20" height="14" viewBox="0 0 20 14" fill="none" xmlns="http://www.w3.org/2000/svg">
<g clip-path="url(#clip0_51_1601)">
<path d="M9.96725 9.915C9.56025 9.027 9.33325 8.04 9.33325 7C9.33325 5.96 9.56025 4.973 9.96725 4.085C7.22925 4.433 5.33325 5.785 5.33325 7C5.33325 8.215 7.22925 9.567 9.96725 9.915ZM4.33325 9.423C3.28125 10.607 1.48225 11.497 -0.666748 11.843V2.158C1.48225 2.503 3.28125 3.393 4.33325 4.578C5.69825 3.04 8.32125 2 11.3333 2C15.7513 2 19.3333 4.239 19.3333 7C19.3333 9.761 15.7513 12 11.3333 12C8.32125 12 5.69825 10.96 4.33325 9.423ZM1.33325 5V9C2.48325 8.77 3.33325 7.962 3.33325 7C3.33325 6.038 2.48325 5.23 1.33325 5ZM17.3333 7C17.3333 5.73 15.2563 4.304 12.3013 4.042C11.6704 4.89903 11.3311 5.93583 11.3333 7C11.3311 8.06417 11.6704 9.10097 12.3013 9.958C15.2563 9.696 17.3333 8.27 17.3333 7ZM14.3333 6C14.5985 6 14.8528 6.10536 15.0404 6.29289C15.2279 6.48043 15.3333 6.73478 15.3333 7C15.3333 7.26522 15.2279 7.51957 15.0404 7.70711C14.8528 7.89464 14.5985 8 14.3333 8C14.068 8 13.8137 7.89464 13.6261 7.70711C13.4386 7.51957 13.3333 7.26522 13.3333 7C13.3333 6.73478 13.4386 6.48043 13.6261 6.29289C13.8137 6.10536 14.068 6 14.3333 6Z" fill="black"/>
</g>
<defs>
<clipPath id="clip0_51_1601">
<rect width="20" height="14" fill="white" transform="translate(20 14) rotate(-180)"/>
</clipPath>
</defs>
</svg>
