<svg width="20" height="14" viewBox="0 0 20 14" fill="none" xmlns="http://www.w3.org/2000/svg">
<path d="M12.6169 5.91663C12.1566 5.91663 11.7835 6.30838 11.7835 6.79163C11.7835 7.27487 12.1566 7.66663 12.6169 7.66663C13.0771 7.66663 13.4502 7.27487 13.4502 6.79163C13.4502 6.30838 13.0771 5.91663 12.6169 5.91663Z" fill="black"/>
<path d="M0.27581 12.3194C0.368861 12.368 0.474414 12.3935 0.581861 12.3935C0.689307 12.3935 0.79486 12.368 0.887911 12.3194C2.95069 11.2128 4.50543 9.10463 5.11141 8.19718L5.55825 7.5L6.17035 6.60362C7.24765 5.22586 9.29207 3.08451 11.5507 3.08451C14.397 3.08451 16.9066 6.48742 17.5738 7.47787C16.9066 8.46831 14.4031 11.8712 11.5507 11.8712C9.38388 11.8712 7.40679 9.89034 6.29889 8.51258L6.1275 8.77817C6.1275 8.77817 5.90714 9.06036 5.55825 9.46982C6.86202 11.0191 9.02886 13 11.5874 13C15.6212 13 18.7307 7.98139 18.8592 7.76559L19 7.5L18.8347 7.23441C18.7062 7.01861 15.5967 2 11.563 2C8.46573 2 5.91939 4.95473 4.82985 6.42656C4.85433 6.39336 4.13205 7.5 4.13205 7.5L4.0892 7.56087C3.7583 8.09904 3.37307 8.60842 2.93845 9.0825C2.41906 9.68833 1.83247 10.2445 1.18784 10.7425V4.24648C2.02682 4.8951 2.76953 5.63902 3.39753 6.45976L3.49546 6.3159L4.10757 5.43612C3.24997 4.34571 2.16705 3.41563 0.918516 2.69718C0.825824 2.64745 0.720248 2.62073 0.612465 2.61972C0.505672 2.62201 0.400918 2.64663 0.306414 2.69165C0.213005 2.7404 0.135506 2.8106 0.081761 2.89513C0.0280164 2.97967 -6.47302e-05 3.07554 0.000363476 3.17304V11.838C-0.00325315 11.9329 0.0201853 12.027 0.0684235 12.1113C0.116662 12.1956 0.188078 12.2673 0.27581 12.3194V12.3194Z" fill="black"/>
</svg>
