<svg width="20" height="14" viewBox="0 0 20 14" fill="none" xmlns="http://www.w3.org/2000/svg">
<g clip-path="url(#clip0_51_1599)">
<path d="M11.3577 0.75C8.23372 0.75 5.5056 2.88945 3.9872 4.71992L0.954904 2.13984C0.533724 1.78125 -0.0950954 2.16328 0.0125435 2.7125L0.852127 7L0.0121962 11.2879C-0.0954426 11.8371 0.533377 12.2187 0.954557 11.8605L3.98685 9.28047C5.50525 11.1105 8.23372 13.25 11.3577 13.25C16.1306 13.25 20 8.25 20 7C20 5.75 16.1306 0.75 11.3577 0.75ZM14.3934 7.9375C13.9334 7.9375 13.5601 7.51758 13.5601 7C13.5601 6.48203 13.9334 6.0625 14.3934 6.0625C14.8539 6.0625 15.2268 6.48203 15.2268 7C15.2268 7.51758 14.8535 7.9375 14.3934 7.9375Z" fill="black"/>
</g>
<defs>
<clipPath id="clip0_51_1599">
<rect width="20" height="14" fill="white"/>
</clipPath>
</defs>
</svg>
