<svg width="20" height="14" viewBox="0 0 20 14" fill="none" xmlns="http://www.w3.org/2000/svg">
<path d="M11.875 12C15.5013 12 18.2096 10.2857 20 6.85711C19.5508 6.29164 19.0869 5.78866 18.6084 5.34819C18.1299 4.90771 17.6546 4.54462 17.1826 4.2589C16.7106 3.97319 16.2516 3.73509 15.8057 3.54462C15.3597 3.35414 14.9007 3.2098 14.4287 3.11158C13.9567 3.01337 13.5238 2.9464 13.1299 2.91069C12.736 2.87497 12.3177 2.85712 11.875 2.85712C11.1133 2.85712 10.2018 3.02825 9.14062 3.37051C8.07943 3.71277 7.07357 4.16069 6.12305 4.71426C5.17253 5.26783 4.49544 5.82438 4.0918 6.3839C3.59049 5.90176 3.1901 5.52229 2.89062 5.24551C2.59115 4.96872 2.264 4.69045 1.90918 4.41069C1.55436 4.13093 1.22559 3.91515 0.922852 3.76337C0.620117 3.61158 0.3125 3.49997 0 3.42854C0.0455729 3.5714 0.136719 3.81991 0.273438 4.17408C0.410156 4.52825 0.514323 4.81396 0.585938 5.03122C0.657552 5.24848 0.727539 5.53569 0.795898 5.89283C0.864258 6.24997 0.898438 6.60414 0.898438 6.95533C0.898438 7.56842 0.817057 8.25295 0.654297 9.0089C0.491536 9.76485 0.273438 10.3809 0 10.8571C0.266927 10.8452 0.553385 10.7931 0.859375 10.7009C1.16536 10.6086 1.4974 10.4702 1.85547 10.2857C2.21354 10.1012 2.58464 9.84223 2.96875 9.5089C3.35286 9.17556 3.71419 8.78866 4.05273 8.34818C4.37174 8.78866 4.80143 9.22318 5.3418 9.65175C5.88216 10.0803 6.48926 10.4702 7.16309 10.8214C7.83691 11.1726 8.58887 11.4568 9.41895 11.6741C10.249 11.8913 11.0677 12 11.875 12ZM15.625 4.5714C16.1523 4.5714 16.5967 4.73658 16.958 5.06694C17.3193 5.39729 17.5 5.80354 17.5 6.28569C17.5 6.76783 17.3193 7.17408 16.958 7.50443C16.5967 7.83479 16.1523 7.99997 15.625 7.99997C15.0977 7.99997 14.6533 7.83479 14.292 7.50443C13.9307 7.17408 13.75 6.76783 13.75 6.28569C13.75 5.80354 13.9307 5.39729 14.292 5.06694C14.6533 4.73658 15.0977 4.5714 15.625 4.5714ZM15.5957 5.43747C15.8626 5.43747 16.0856 5.51783 16.2646 5.67854C16.4437 5.83926 16.5332 6.03866 16.5332 6.27676C16.5332 6.5208 16.4421 6.73211 16.2598 6.91069C16.0775 7.08926 15.8561 7.17854 15.5957 7.17854C15.3353 7.17854 15.109 7.08926 14.917 6.91069C14.7249 6.73211 14.6289 6.5208 14.6289 6.27676C14.6289 6.03866 14.7233 5.83926 14.9121 5.67854C15.1009 5.51783 15.3288 5.43747 15.5957 5.43747Z" fill="black"/>
</svg>
